<?xml version="1.0" encoding="utf-8"?>
<!-- Generator: Adobe Illustrator 27.0.0, SVG Export Plug-In . SVG Version: 6.00 Build 0)  -->
<svg version="1.1" id="레이어_1" xmlns="http://www.w3.org/2000/svg" xmlns:xlink="http://www.w3.org/1999/xlink" x="0px"
	 y="0px" viewBox="0 0 1024 512" style="enable-background:new 0 0 1024 512;" xml:space="preserve">
<style type="text/css">
	.st0{fill:#914A99;}
	.st1{fill:#040000;}
</style>
<path class="st0" d="M595,75c0,8.7,0.2,17.4-0.1,26c-0.1,4.8,1.2,6.7,5.5,6.6c7.7-0.3,15.5-0.1,24.7-0.1c-5.1,6-9.2,10.9-13.3,15.7
	c-4.3,5-8.4,10.3-13,15c-3.3,3.4-3.4,6.2-1,10.4c8.4,14.5,13.9,30.4,15.9,47.7c4.7,39.8-5.7,73.9-29.3,102.8
	c-18,22-40.3,35.4-65.8,41.3c-25.4,6-50.5,4.3-74.7-6.4c-37.3-16.5-63.7-46-74-91.7c-7.4-32.9-2.5-64.4,13.5-92.8
	c21.1-37.4,51.6-57.8,89.6-63.5c30.8-4.6,59.8,1.6,86.6,20.2c3.1,2.2,5.1,1.6,7.5-1.3c7.7-9.2,15.5-18.1,23.3-27.2
	c1-1.2,2.2-2.3,3.3-3.4C594.2,74.5,594.6,74.7,595,75z M547.5,144.1c0.3-1.8,0.6-2.5,0.6-3.2c-0.9-9.2,0.8-17.1,7.7-22.9
	c2.1-1.8,2-3.9-0.6-5.2c-10.4-5.1-20.4-11.6-31.1-15c-25.5-8.2-51-7-76,3.6c-31.2,13.2-54.7,36.3-67.1,72.8
	c-13.2,39.3-7.3,75.8,14.3,108.8c17,25.8,39.8,41.6,67.1,48.1c48.1,11.6,89.6-2.3,122.5-45.5c26.9-35.2,30.2-89.1,9-129.1
	c-4.1-7.7-4.5-8-9.6-1.3c-3.9,5.2-8.3,7.4-14.1,6.5c-2-0.3-4.1,0.2-7,0.4c2.5,5.4,4.8,9.7,6.7,14.2c11.7,27.7,10.6,55.2-3,81.3
	c-13.1,25.2-33,40.1-57.8,45.4c-28.2,6.1-54.4,0.1-77.2-21c-18.7-17.4-29.2-40.3-29.2-68.2c0-26.6,9.6-48.7,27-66.2
	c29.9-30,76.1-33.9,110.2-9.1C542.3,140.4,544.6,142,547.5,144.1z M545.7,154.3c-2.3-2.2-3.8-3.7-5.3-5
	c-10.3-8.7-21.8-14.4-34.3-16.6c-31.8-5.7-59.6,3.6-80.6,32.9c-17.2,24-20.8,51.8-9.1,80.2c13.6,33.1,38.1,48.5,68.6,51
	c24.1,2,45.4-7,63.8-26c25.7-26.6,28.8-75.7,6.2-105.9c-2.5-3.4-4.8-3.9-7.7-0.9c-4.7,4.7-9.5,9.5-14.5,13.9
	c-3.3,2.9-3.7,5.2-1.3,9.5c11.8,21,9.1,45.1-6.6,62.2c-15.1,16.4-40.1,19.8-58.4,8.3c-15.1-9.5-24.1-24.3-24.1-44
	c0-23.4,13.5-41.3,32.6-47.9c16.2-5.7,31.6-3.2,45.8,8.2c1,0.8,3.2,1,4,0.3C531.6,168.1,538.3,161.5,545.7,154.3z M517.2,182.1
	c-2.8-2.1-4.4-3.6-6.3-4.7c-15.9-9.6-35.5-6.9-49.2,6.8c-12.9,12.9-15.5,35.5-6.1,51.6c16.4,28.1,55.7,27.3,71-1.6
	c7.2-13.6,6.8-27.6-0.4-41.3c-1.9-3.6-3.9-5.1-7.1-1.4c-3.3,3.7-6.9,7-10.5,10.2c-2.3,2-2.9,4.1-1.9,7.3c1.9,6.1,0.6,11.7-3.2,16.2
	c-5.4,6.6-16.4,7.6-22.9,2.4c-8.8-7-9.1-19.3-0.6-26.7c4.5-3.9,9.5-4.3,14.8-3.4c2,0.4,4.7,1.1,6.1-0.1
	C506.3,192.9,511.2,187.7,517.2,182.1z M488.8,205.9c-2.7-0.1-5.8,1.4-7.1,5.8c-1.1,3.8,0.1,6.9,3.2,9c4.2,2.9,9.7,2.4,13.2-1.4
	c1.8-2,3.3-4.3,1.6-6.4c-3.1,0.5-5.8,1.8-7.8,0.9C490.4,213.2,490.1,209.5,488.8,205.9z"/>
<path class="st1" d="M722.6,369.4c8.2,0,15.8,0,23.9,0c0.1,2.4,0.2,4.7,0.3,6.9c0.2,13-0.2,25.9,0.6,38.9
	c0.9,15.6,9.1,23.9,22.6,23.9c13.6,0,23.2-9,24.2-23.9c0.8-12.9,0.5-25.9,0.7-38.8c0-2.1,0-4.2,0-6.8c8.1,0,15.8,0,23.8,0
	c0.1,1.3,0.4,2.6,0.4,4c0,28.1,0.3,56.1-0.2,84.2c-0.5,33.2-18.6,53.6-47.2,54.3c-13.3,0.3-26.1-2.1-38-9.6
	c-2.9-1.9-5.6-4.2-8.8-6.5c3.2-7.2,6.1-13.9,9.3-21.1c1.4,1.1,2.6,2,3.8,2.9c11.3,8.8,23.8,11.7,37.1,9.8c9.8-1.4,16.1-8,18.3-19.3
	c1.1-6.1,1.2-12.4,1.1-18.9c-6.7,7.4-14.1,12-22.9,13.2c-17.3,2.4-34.8-2.4-43-20.3c-2.8-6.1-4-13.3-5.6-20.1
	c-0.7-3-0.4-6.4-0.5-9.6C722.6,398.3,722.6,384.2,722.6,369.4z"/>
<path class="st1" d="M78.8,429.2c7.5,0,14.5,0,21.9,0c0,21.1,0,42,0,63.3c-5.8,0-11.4,0-17.4,0c-0.3-1.9-0.7-3.9-1.1-6.5
	c-9,6.5-18.6,9-28.9,8.9c-32.7-0.4-57.5-28.6-52.8-71.8c3.6-32.9,25.2-54.8,53.9-56.1c17.4-0.8,33.3,3.4,46.2,18.3
	c0.6,0.7,1.2,1.6,2.2,2.9c-5.1,5.5-10,10.9-15.3,16.5c-1.4-1.3-2.6-2.5-3.9-3.7c-12-11.1-25.3-13-39.1-6.4
	c-14.8,7.1-21.8,24.3-19.5,44.2c3.6,31.9,32.1,39,49.8,27.2c2.8-1.9,4.1-4.1,4-8C78.6,448.6,78.8,439.2,78.8,429.2z"/>
<path class="st1" d="M305.4,398.3c0,31.6,0,62.6,0,94.1c-7.4,0-14.6,0-22.1,0c-0.1-3-0.2-6-0.4-9.9c-10.5,12.2-22.8,13.5-35.9,10.4
	c-8.8-2.1-16.1-7.4-21.7-15.6c-12.2-18-11.7-48.3,1.1-65.3c13.7-18.1,33.8-20.1,55.6-5.3c0.1-2.8,0.3-5.4,0.4-8.3
	C289.9,398.3,297.4,398.3,305.4,398.3z M282.5,445.7c0.4-0.2,0.8-0.4,1.2-0.5c-1.9-5.8-3.1-12.2-6-17.3c-5-8.7-15.1-11.4-23.8-7.7
	c-9,3.9-13.8,13.3-13.5,26.3c0.3,12.1,5.6,21.1,14.1,24.2C269.5,476,282.2,464.7,282.5,445.7z"/>
<path class="st1" d="M881.6,494.2c-23.7-0.1-40.5-15-44.7-39.1c-5-28,11.5-54.5,35.9-58c16-2.3,30.7,1,42,15c12.2,15,14.3,33.2,8,52
	c-6.2,18.4-19,27.5-35.6,29.8C885.1,494.1,883,494.1,881.6,494.2z M859.9,445.4c0,12.6,5.1,21.8,14.1,25.3
	c9.7,3.7,19.7-0.4,24.7-10.1c5.8-11.3,4.1-27.6-3.8-35.8c-6.8-7-14.7-7.8-22.6-3.9C863.3,425.4,859.9,434.3,859.9,445.4z"/>
<path class="st1" d="M162.5,494.2c-22.7,0.4-39.8-13.8-44.7-36.8c-6.2-29.3,10.4-57,36.1-60.5c15-2,28.8,1,39.9,13.4
	c13,14.5,15.7,32.7,10,52c-5.6,19.1-18.5,28.8-35.4,31.5C166.3,494.1,164.2,494.1,162.5,494.2z M183.3,445
	c-1.3-4.8-1.9-10.1-3.9-14.5c-4.6-9.9-14-14-23.6-11.1c-9,2.7-14.9,12.2-15.4,24.9c-0.5,12.2,4.9,22.6,13.8,26.2
	C169.2,476.6,182.6,464.7,183.3,445z"/>
<path class="st1" d="M552.9,494.2c-22.6-0.3-38.8-13.8-43.9-35.9c-6.7-29.1,9.4-57.3,35-61.3c17-2.6,32.4,1.3,43.9,17.2
	c11.1,15.3,12.3,33.2,5.9,51.1c-6.3,17.5-18.9,26.3-34.9,28.5C556.7,494.1,554.3,494.1,552.9,494.2z M573.6,445.4
	c0-11.1-3.9-19.6-11.1-24c-9.2-5.6-20.4-2.7-26.7,6.8c-6.3,9.5-5.8,26.8,1,35.7c5.9,7.6,15.4,10.1,23.9,6.3
	C568.7,466.7,573.6,457.2,573.6,445.4z"/>
<path class="st1" d="M941.9,398.2c7.9,0,15.3,0,23.3,0c0,2.2,0,4.1,0,6c0,15.3-0.1,30.6,0.2,45.8c0.2,13.1,5.6,20.1,15,20.6
	c11.2,0.6,19.1-6.1,20-18.8c1-14.8,0.6-29.8,0.8-44.7c0-2.8,0-5.6,0-8.8c7.8,0,15.2,0,22.9,0c0,31.4,0,62.6,0,94.1
	c-7.1,0-14.2,0-21.6,0c-0.1-3.1-0.3-6.2-0.5-9.9c-1,0.7-1.6,1.1-2.1,1.6c-11.3,11.6-24.3,12.6-37.8,7.3c-13.1-5.1-19.4-17.3-20-32.6
	C941.3,438.9,941.9,418.8,941.9,398.2z"/>
<path class="st1" d="M498.3,395.7c-8.3-1.7-15.9-4.3-23.4-4.4c-18.7-0.4-26.8,10.8-24.9,33.3c14.3,0,28.7,0,43.3,0
	c0,7.9,0,15.1,0,23c-14.4,0-28.8,0-43.7,0c0,15.4,0,30,0,44.9c-8.4,0-16.2,0-24.3,0c-0.1-1.7-0.2-3-0.2-4.4c0-23.3-0.1-46.5,0-69.8
	c0.1-15.7,3.6-29.8,14.8-40c6.8-6.2,14.7-9.3,23.1-10.5c12.7-1.8,25.2-0.9,37.3,4.8c3.6,1.7,5.2,3.5,3.2,8.2
	C501.3,385.9,499.7,391.5,498.3,395.7z"/>
<path class="st1" d="M328.2,361.9c7.8,0,15.2,0,23.3,0c0,2.3,0,4.4,0,6.4c0,29.1,0,58.2,0,87.3c0,15.1,3.4,18.5,16.8,15.9
	c0.3,6.3,0.6,12.6,0.8,18.8c0,0.7-0.9,1.8-1.6,2.2c-12.2,6.7-31.8-1.5-37-15.7c-1.4-3.8-2.4-8.2-2.4-12.3
	c-0.2-33.4-0.1-66.7-0.1-100.1C328,363.8,328.1,363.1,328.2,361.9z"/>
<path class="st1" d="M636.4,408.9c10.5-9.9,17.6-13,27.4-12.1c0,8,0,16,0,24.5c-1.7,0-3.2,0-4.7,0c-13.7,0-21.6,8.9-21.9,24.9
	c-0.2,13.3-0.1,26.6-0.1,39.9c0,1.9,0,3.9,0,6.2c-7.8,0-15.3,0-23.2,0c0-31.2,0-62.5,0-94.1c7.3,0,14.3,0,21.8,0
	C636,401.6,636.2,404.9,636.4,408.9z"/>
</svg>
