<?xml version="1.0" encoding="utf-8"?>
<!-- Generator: Adobe Illustrator 27.0.0, SVG Export Plug-In . SVG Version: 6.00 Build 0)  -->
<svg version="1.1" id="레이어_1" xmlns="http://www.w3.org/2000/svg" xmlns:xlink="http://www.w3.org/1999/xlink" x="0px"
	 y="0px" viewBox="0 0 128 128" style="enable-background:new 0 0 128 128;" xml:space="preserve">
<style type="text/css">
	.st0{fill:#914A99;}
</style>
<g>
	<path class="st0" d="M113.5,0.2c0,1.3,0,2.6,0,3.9c0,3.2,0,6.3,0,9.5c0,1.6,0.5,2.5,2,2.4c2.6-0.1,5.3-0.2,7.9-0.2
		c1.4,0,2.8,0.3,4.6,0.4c-0.6,0.8-1,1.4-1.4,1.9c-3.8,4.3-7.6,8.6-11.5,12.8c-1.2,1.3-1.4,2.4-0.4,4c4.4,7.3,7.3,15.4,8.2,24.2
		c0.8,7.5,0.5,14.9-1.4,22.2c-2.2,8.5-5.8,16-10.9,22.7c-5.8,7.5-12.7,13.2-20.7,17.4c-4.9,2.6-10.1,4.3-15.3,5.5
		c-6.5,1.4-13.1,1.4-19.7,0.6c-7.5-0.9-14.6-3.3-21.3-7c-7.2-4-13.6-9.3-18.9-16.2c-3.3-4.3-6-8.9-8.1-14
		c-2.6-6.2-4.1-12.8-4.6-19.7c-0.6-7.5,0.3-14.9,2.4-22c2.6-8.9,7-16.6,12.9-23.2C25,16.8,34,11.1,44.2,7.7C49.4,6,54.6,5.1,59.9,5
		C65.2,4.8,70.5,5,75.6,6.2c5.8,1.3,11.3,3.4,16.6,6.4c1.6,0.9,3.3,1.9,4.8,3c0.8,0.6,1.4,0.6,2.1-0.2c3.6-4.1,7.1-8.1,10.7-12.1
		c1-1.1,2.1-2.2,3.2-3.3C113.2,0,113.3,0.1,113.5,0.2z M98,42c0.8,1.5,1.4,2.6,2,3.7c3.8,7.3,5.6,15.1,5,23.6
		c-0.5,8.4-3.2,15.9-7.8,22.4c-3.7,5.3-8.3,9.5-13.6,12.5c-4.9,2.8-9.9,4.5-15.3,5.3c-6.5,0.9-13,0.5-19.3-1.7
		c-8.3-2.8-15.6-7.8-21.1-15.6c-3.3-4.6-5.9-9.7-7.1-15.5c-1.1-5-1.7-10-0.9-15.1c0.4-2.7,0.8-5.6,1.6-8.2
		c2.1-6.7,5.6-12.5,10.2-17.4c5.3-5.6,11.5-9.4,18.5-11.4c5.7-1.6,11.5-2.2,17.3-1.4c7.1,0.9,13.7,3.3,19.6,7.8c1,0.7,2,1.4,3.3,2.3
		c0-1.8,0.1-3.2,0-4.5c-0.2-2.3,0.1-4.3,2-5.8c0.7-0.6,1.3-1.4,1.9-2.1c0.9-1,0.7-1.7-0.3-2.4c-7.5-4.8-15.5-7.7-24-8.9
		C63.7,8.7,57.4,9,51.2,10.3c-6.2,1.3-12.1,3.6-17.7,7c-6.9,4.1-12.8,9.6-17.6,16.6C10.7,41.5,7.3,50,6.2,59.8
		c-0.7,6.6-0.4,13,1,19.3c2.5,11.1,7.8,20.4,15.3,28c9.4,9.4,20.5,14.5,32.9,16.3c6.7,1,13.3,0.5,19.9-1c6.8-1.5,13.2-4.3,19.1-8.3
		c5.1-3.5,9.6-7.8,13.5-13c4.1-5.4,7.2-11.4,9.2-18.1c1.7-5.8,2.6-11.8,2.4-18.1c-0.3-9.3-2.8-17.9-7-25.8c-1.8-3.3-2-3.4-4.2-0.4
		c-1.8,2.4-3.9,3.6-6.7,3.2C100.6,41.6,99.5,41.9,98,42z M62.7,105.5c8.2,0.2,16.1-2.5,23.2-7.9C92,93.1,96.5,87,99.2,79.2
		c2.1-6.1,2.5-12.3,1.7-18.6c-0.9-6.8-3.5-12.6-7.5-17.8c-0.9-1.1-1.8-1.2-2.8-0.3c-2.8,2.6-5.6,5.3-8.4,7.9
		c-0.9,0.8-0.8,1.5-0.2,2.5c3,4.9,4.6,10.2,3.8,16.2c-1.3,10.4-6.9,16.9-15.3,20c-8.5,3.1-16.6,1.7-23.8-4.5
		c-3.1-2.7-5.6-6.2-6.8-10.5c-2.6-9.3-0.9-17.5,5.4-24.3c5.3-5.8,11.7-7.8,19-7.3c4.7,0.3,9,2,12.8,5.1c0.8,0.7,1.5,0.7,2.3-0.1
		c2.8-2.7,5.7-5.5,8.6-8.1c1-0.9,1-1.6-0.1-2.5c-9.9-8.4-21.1-11.1-33.2-8.9c-7.9,1.4-14.9,5.3-20.8,11.6
		c-5.9,6.3-9.7,13.9-10.5,22.9c-1.2,13.3,3.2,24.2,12.2,32.6C43.4,102.3,52.3,105.7,62.7,105.5z M75.1,51.5c0-0.2,0-0.5,0-0.7
		c-1.9-1-3.7-2.4-5.6-3.1c-8.2-2.8-17.9-0.6-23.6,7.9c-4,6-4.2,15.3-0.2,21.3c4.3,6.4,10,9.4,17.1,9.3c6.4-0.1,11.7-2.6,15.8-8.1
		c4.7-6.3,5.1-15,1-21.9c-1.1-1.9-1.4-2-2.9-0.6c-1.9,1.8-3.7,3.5-5.6,5.2c-0.9,0.8-1.2,1.5-0.8,2.9c1.1,3.3,0.2,6.7-2,8.7
		c-3.3,2.9-7.9,3-11.2,0.3c-2.1-1.7-3-4.1-2.9-7.1c0.3-5.3,6.5-8.8,11-6.9c0.6,0.3,1.5,0.5,1.9,0.2C69.8,56.4,72.4,53.9,75.1,51.5z
		 M62.6,63c-2-1-4.1,1-4.5,2.5c-0.5,1.8,0.5,3.7,2.5,4.3c1.8,0.6,3.5,0.6,5.2-0.6c1.4-1.1,1.6-2.2,0.9-3.9c-0.9,0.7-1.8,1.5-2.8,2.2
		c-0.8-1.1-1.5-2.1-2.2-3.1C61.9,64,62.2,63.6,62.6,63z"/>
</g>
</svg>
