<?xml version="1.0" standalone="no"?>
<!DOCTYPE svg PUBLIC "-//W3C//DTD SVG 20010904//EN"
 "http://www.w3.org/TR/2001/REC-SVG-20010904/DTD/svg10.dtd">
<svg version="1.0" xmlns="http://www.w3.org/2000/svg"
 width="508.000000pt" height="434.000000pt" viewBox="0 0 508.000000 434.000000"
 preserveAspectRatio="xMidYMid meet">

<g transform="translate(0.000000,434.000000) scale(0.100000,-0.100000)"
fill="#000000" stroke="none">
<path d="M3811 3786 l-244 -244 -61 35 c-230 131 -488 222 -736 260 -133 21
-465 23 -610 5 -190 -24 -436 -97 -619 -184 -95 -45 -269 -150 -327 -198 -17
-14 -48 -38 -70 -55 -46 -35 -192 -182 -249 -250 -51 -61 -150 -208 -175 -260
-10 -22 -26 -51 -34 -65 -47 -78 -125 -316 -148 -451 -17 -100 -16 -404 1
-499 78 -430 316 -809 676 -1076 55 -41 105 -78 110 -82 18 -14 128 -74 210
-115 180 -89 428 -164 625 -188 131 -17 443 -17 575 0 99 12 352 72 410 97 17
7 71 29 120 49 437 179 801 529 975 937 95 221 124 371 124 628 1 183 -10 282
-41 385 -8 28 -21 73 -28 101 -26 95 -130 310 -192 395 -18 26 -33 51 -33 55
0 5 106 115 235 244 129 129 235 238 235 242 0 5 -108 8 -240 8 l-240 0 -2
235 -3 235 -244 -244z m-1121 -77 c257 -32 461 -96 685 -215 47 -25 85 -49 85
-53 0 -3 -31 -38 -70 -76 l-70 -69 0 -113 c0 -62 -2 -113 -4 -113 -3 0 -33 19
-68 42 -266 178 -626 270 -934 239 -268 -27 -499 -107 -704 -245 -104 -71
-273 -242 -344 -350 -136 -206 -209 -474 -191 -696 24 -286 141 -535 350 -745
198 -200 432 -323 720 -380 329 -65 669 -19 965 131 180 91 385 271 491 434
146 222 220 514 189 740 -15 114 -47 243 -77 310 -42 96 -46 104 -90 176 -24
39 -43 74 -43 77 0 4 51 7 112 7 l113 0 81 81 82 81 36 -56 c82 -128 150 -283
186 -426 26 -101 50 -276 50 -361 0 -144 -45 -377 -100 -515 -85 -212 -191
-374 -354 -538 -347 -348 -811 -536 -1331 -538 -233 -1 -399 24 -615 94 -548
176 -974 588 -1121 1083 -41 136 -49 192 -56 345 -9 231 10 361 84 570 17 48
85 191 106 225 104 165 132 201 261 331 133 132 195 182 326 262 60 37 203
112 214 112 3 0 25 9 49 20 154 72 376 121 662 144 58 5 227 -3 325 -15z m-73
-500 c195 -26 426 -117 580 -226 75 -54 81 -61 57 -78 -11 -7 -31 -23 -45 -36
-14 -13 -45 -40 -69 -59 -24 -19 -76 -63 -117 -97 -41 -35 -78 -63 -82 -63 -5
0 -19 8 -32 18 -92 70 -255 129 -409 147 -144 17 -384 -49 -522 -142 -70 -48
-157 -142 -203 -222 -114 -195 -117 -429 -7 -631 48 -88 185 -223 276 -273
185 -100 411 -126 621 -71 63 17 202 82 245 115 66 52 156 150 192 211 134
226 126 472 -25 695 l-35 52 32 28 c18 15 54 46 81 68 106 88 141 118 167 141
14 13 36 24 47 24 48 0 190 -213 231 -345 7 -22 19 -58 26 -80 35 -105 44
-298 20 -420 -45 -226 -136 -396 -297 -556 -74 -74 -124 -113 -254 -197 -65
-42 -208 -98 -325 -128 -453 -117 -928 5 -1245 321 -208 207 -315 453 -315
725 0 271 107 519 315 725 189 188 412 300 700 350 90 16 291 18 392 4z m35
-562 c65 -22 178 -81 178 -92 0 -2 -30 -29 -67 -60 -38 -31 -77 -64 -88 -73
-11 -10 -38 -32 -60 -49 l-41 -31 -54 14 c-87 24 -166 11 -240 -37 -235 -151
-61 -478 223 -419 83 17 146 63 181 133 32 64 36 111 13 174 l-14 42 50 43
c28 24 85 71 126 106 l75 62 23 -27 c30 -36 81 -144 93 -197 12 -53 12 -159 0
-213 -23 -98 -93 -212 -175 -283 -259 -225 -687 -205 -910 42 -104 115 -140
208 -139 353 0 84 5 111 28 170 62 159 198 281 376 339 103 34 110 35 235 32
86 -3 126 -9 187 -29z m-229 -436 c-13 -11 -23 -22 -23 -26 0 -13 73 -95 84
-95 7 0 25 14 41 30 16 17 35 30 42 30 22 0 14 -44 -13 -73 -31 -34 -63 -47
-114 -47 -21 0 -50 4 -63 9 -33 13 -77 61 -77 84 0 50 64 107 120 106 l25 0
-22 -18z"/>
</g>
</svg>
