<?xml version="1.0" encoding="utf-8"?>
<!-- Generator: Adobe Illustrator 27.0.0, SVG Export Plug-In . SVG Version: 6.00 Build 0)  -->
<svg version="1.1" id="레이어_1" xmlns="http://www.w3.org/2000/svg" xmlns:xlink="http://www.w3.org/1999/xlink" x="0px"
	 y="0px" viewBox="0 0 64 64" style="enable-background:new 0 0 64 64;" xml:space="preserve">
<style type="text/css">
	.st0{fill:#914A99;}
</style>
<path class="st0" d="M0.2,64c0-21.3,0-42.7,0-64C0.6,0,1,0.1,1.3,0.1c20.5,0,41,0,61.4,0c1.2,0,1.2,0,1.2,1.4c0,20.4,0,40.7,0,61.1
	c0,1.4,0,1.4-1.3,1.4c-20.4,0-40.8,0-61.2,0C1.1,64,0.6,64,0.2,64z M44.5,17.4c0-1.2-0.1-2.1,0-3c0.1-0.6,0.3-1.2,0.6-1.6
	c0.4-0.6,0.9-1,1.4-1.6c0.4-0.5,0.3-0.9-0.2-1.2c-1.6-0.8-2.9-2-4.7-2.4c-2.2-0.6-4.3-1.6-6.5-1.9c-3.3-0.5-6.7-0.6-10,0.3
	c-2.2,0.6-4.5,1.1-6.6,2c-1.7,0.7-3.3,1.8-4.7,2.9c-1.7,1.3-3.3,2.8-4.8,4.4c-2,2.2-3.7,4.7-4.7,7.6c-0.9,2.6-1.8,5.2-2.1,7.9
	C2,33.3,2,35.8,2.5,38.3c0.8,3.6,1.8,7,3.8,10c0.4,0.5,0.6,1.2,0.9,1.7c0.6,0.8,1.3,1.5,2,2.2c1.3,1.4,2.6,2.8,4.1,3.8
	c0.2,0.1,0.4,0.3,0.6,0.5c0.8,0.6,1.5,1.3,2.4,1.7c1.3,0.6,2.7,0.9,3.9,1.6c1.2,0.7,2.5,0.8,3.8,1.1c0.6,0.1,1.2,0.2,1.7,0.3
	c2.7,0.7,5.4,0.6,8.1,0.3c2.6-0.4,5.1-1.1,7.6-2c1.9-0.7,3.7-1.7,5.3-2.8c2.5-1.6,4.7-3.7,6.6-6.3c1.5-2.1,3-4.2,3.9-6.8
	c0.1-0.2,0.1-0.3,0.2-0.5c0.5-1.5,1.1-3,1.3-4.5c0.3-2.3,0.3-4.6,0.4-6.9c0-1.2-0.1-2.5-0.4-3.7c-0.9-3.1-1.8-6.2-3.5-8.9
	c-0.4-0.6-0.6-0.6-1-0.1c-0.5,0.6-1,1.2-1.6,1.7c-0.4,0.3-0.8,0.6-1.3,0.6c-0.8,0.1-1.6,0-2.4,0c-0.5,0-0.7,0.3-0.5,0.8
	c0.4,0.8,0.7,1.6,1.2,2.3c0.9,1.4,1.4,3,1.7,4.7c0.3,1.5,0.1,3.1,0.3,4.6c0.3,2-0.1,3.9-0.7,5.7c-1.3,4.5-3.9,7.9-7.2,10.6
	c-2.4,1.9-5.1,3.1-8,4c-2.6,0.7-5.1,0.4-7.7,0.4c-2.1,0-4.2-0.7-6.2-1.6c-3.1-1.3-5.7-3.4-7.9-6.1c-2-2.4-3.4-5.2-4.2-8.4
	c-0.4-1.7-0.3-3.5-0.4-5.2c-0.2-4,1-7.6,3-10.7c1.2-2,2.8-3.8,4.6-5.2c4-3.4,8.5-5.2,13.6-4.7c0.2,0,0.4,0,0.6,0
	c0.8,0,1.5-0.1,2.3,0c1.5,0.1,2.9,0.7,4.3,1.1c1.6,0.5,3.1,1.2,4.5,2.1C42.8,16.3,43.5,16.8,44.5,17.4z M30.4,14.2
	c-1.6,0.2-3.3,0.3-4.9,0.7c-1.2,0.2-2.3,0.7-3.4,1.2c-0.8,0.3-1.6,0.6-2.3,1.2c-1.3,1-2.4,2.1-3.6,3.1c-1.9,1.7-3.2,3.9-4.1,6.4
	c-1.3,3.3-1.4,6.6-0.9,10c0.2,1.7,0.7,3.4,1.4,5c0.5,1.1,1.4,2,2,3.1c0.9,1.5,2.1,2.7,3.4,3.7c1,0.8,1.9,1.5,3.1,1.9
	c1.3,0.4,2.5,1.3,3.8,1.6c4.2,0.9,8.4,1,12.5-0.6c3.7-1.5,6.9-3.8,9.3-7.3c1.3-1.8,2.2-3.8,2.7-6.1c0.9-4.1,0.7-8.2-0.9-12
	c-0.6-1.4-1.3-2.6-2.1-3.8c-0.6-0.9-1.6-1-2.3-0.3c-1.2,1.1-2.4,2.3-3.5,3.5c-0.8,0.8-0.8,0.8-0.1,1.8c0.1,0.1,0.2,0.3,0.3,0.4
	c1.6,2.4,1.6,5.2,1.3,8c-0.2,2.2-1.4,4-2.7,5.6c-1.5,1.9-3.5,3-5.7,3.5c-3,0.8-5.9,0.6-8.7-0.9c-3.7-2-5.9-5.2-6.1-10
	c-0.2-3.8,1.3-6.8,3.8-9.2c2.7-2.6,6-3.2,9.5-2.8c1.1,0.1,2.2,0.5,3.3,0.9c0.9,0.4,1.7,1,2.6,1.5c0.2,0.1,0.7,0.1,0.9-0.1
	c1.5-1.3,2.9-2.6,4.4-3.9c0.4-0.3,0.7-0.8,0.1-1.3c-0.8-0.7-1.7-1.5-2.6-2C37.5,15.4,34.1,14.2,30.4,14.2z M54.6,2.2
	c0-0.1-0.1-0.2-0.1-0.3c-0.3,0-0.6-0.1-1-0.1c-9.7,0-19.4,0-29.1,0c-7.2,0-14.4,0-21.6,0c-0.6,0-1,0.1-1,0.9c0,6.5,0,13,0,19.5
	c0,0.3,0.1,0.6,0.2,0.9C2.2,23.1,2.3,23,2.4,23c1-2,1.9-4,3.1-5.8c1.3-1.9,2.8-3.7,4.4-5.3c1.7-1.7,3.7-2.9,5.6-4.2
	c2.1-1.4,4.4-2.1,6.7-2.9c2.6-0.9,5.4-1.2,8.1-1.2c4.3-0.1,8.4,0.8,12.4,2.5c1.8,0.8,3.5,1.8,5.3,2.8C48.4,9,48.6,9,49,8.6
	c0.9-1,1.9-2,2.8-3C52.6,4.5,53.6,3.4,54.6,2.2z M62.3,10.3c-0.4,0.3-0.5,0.3-0.7,0.5c-0.9,1-1.9,2-2.8,3c-0.8,0.8-1.6,1.6-2.3,2.6
	c-0.2,0.3-0.4,1-0.2,1.3c0.5,1.2,1.1,2.3,1.6,3.5c0.6,1.3,1.2,2.5,1.6,3.8c0.4,1.3,0.7,2.7,0.9,4c0.4,2.7,0.5,5.4,0.2,8.1
	c-0.4,3.5-1.4,6.9-3,9.9c-1.1,2.2-2.4,4.4-4.1,6.1c-1.3,1.4-2.7,2.8-4.2,3.9c-1.7,1.3-3.4,2.3-5.2,3.4c-0.8,0.5-1.8,0.8-2.7,1.2
	c-0.1,0.1-0.2,0.2-0.4,0.5c0.4,0,0.7,0,1,0c6.4,0,12.9,0,19.3,0c0.8,0,1-0.3,1-1.1c0-16.5,0-33,0-49.5
	C62.3,11.2,62.3,10.8,62.3,10.3z M30.5,23.7c-1.3,0.2-2.7,0.2-3.9,0.8c-2.1,1-4,2.4-5.2,4.9c-1.4,2.9-1.2,7.5,0.9,9.9
	c1.7,2,3.6,3.7,6.3,3.9c3.3,0.3,6.3-0.1,8.9-2.6c2.5-2.4,3.4-5.5,2.7-9c-0.2-1.1-0.8-2.1-1.2-3.2c-0.3-0.9-0.6-0.9-1.3-0.3
	c-0.8,0.7-1.8,1.4-2.5,2.2c-0.4,0.4-1,1.2-0.9,1.6c0.3,1.7,0.4,3.2-1,4.4C32.7,37,32,37.5,31,37.2c-0.3-0.1-0.7-0.1-0.9,0
	c-0.9,0.3-1.6,0-2.2-0.5c-1.4-1-2-3.6-1.1-4.9c1.2-1.7,3.1-2.7,4.9-1.8c0.5,0.2,1,0.1,1.5-0.3c0.7-0.7,1.5-1.2,2.3-1.8
	c0.4-0.3,0.8-0.8,1.1-1.2c0.1-0.1,0.1-0.6-0.1-0.7c-0.2-0.3-0.5-0.5-0.8-0.6C34.1,24.2,32.4,23.7,30.5,23.7z M20.1,62.1
	c0-0.1,0.1-0.2,0.1-0.3c-8.3-3.1-14.4-9-18.1-17.8c-0.1,0.4-0.2,0.7-0.2,1c0,5.4,0,10.7,0,16.1c0,0.8,0.2,1.1,1,1
	c5.5,0,10.9,0,16.4,0C19.5,62.1,19.8,62.1,20.1,62.1z M62.3,5.4c0-0.9,0-1.8,0-2.7c0-0.5-0.1-0.8-0.7-0.8c-1.7,0-3.3,0-5,0
	c-0.5,0-0.7,0.2-0.7,0.8c0,1.8,0,3.6,0,5.4c0,0.3,0.4,0.8,0.7,0.8C58.3,9,59.9,9,61.6,9c0.5,0,0.8-0.3,0.8-1
	C62.3,7.1,62.4,6.2,62.3,5.4z M31.1,34c-0.3-0.4-0.6-0.8-1-1.3c0.2-0.3,0.3-0.6,0.4-0.9c-1-0.2-1.6,0.1-2.1,0.8
	c-0.5,0.8-0.4,2.2,0.3,2.4c0.8,0.2,1.7,0.4,2.5,0.3c1.3-0.1,1.8-1,1.4-2.4C32.1,33.3,31.6,33.6,31.1,34z"/>
</svg>
