<?xml version="1.0" encoding="utf-8"?>
<!-- Generator: Adobe Illustrator 27.0.0, SVG Export Plug-In . SVG Version: 6.00 Build 0)  -->
<svg version="1.1" id="레이어_1" xmlns="http://www.w3.org/2000/svg" xmlns:xlink="http://www.w3.org/1999/xlink" x="0px"
	 y="0px" viewBox="0 0 1024 128" style="enable-background:new 0 0 1024 128;" xml:space="preserve">
<style type="text/css">
	.st0{fill:#040000;}
</style>
<path class="st0" d="M722.3,6.3c8.1,0,15.8,0,24.2,0c0,1.8,0,3.4,0,5c0,10.9-0.2,21.8,0.1,32.7c0.4,13,8.2,21.1,20.4,21.8
	c14.3,0.9,24.4-6.1,26.4-18.8c1-6.5,0.8-13.3,0.9-19.9c0.1-6.8,0-13.6,0-21c4.2,0,8.1,0,12,0c3.8,0,7.6,0,11.9,0
	c0.1,1.9,0.3,3.5,0.3,5.1c0,22.7,0.1,45.4,0,68.1c-0.1,13.7-3.2,26.4-13.8,36.3c-6.9,6.4-15.2,10.1-24.4,11.4
	c-17.7,2.5-34.6,0.4-50.2-9c-1-0.6-2.1-1.3-3-2c-0.7-0.5-1.4-1.2-2.5-2.1c3-5.7,6-11.3,9.2-17.4c2.9,1.7,5.4,3.4,8,4.8
	c9.8,5.3,20.3,7.5,31.3,6c12.7-1.7,18.5-7.5,20.5-20c0.7-4.1,0.6-8.3,1-13.4c-1.4,1-2.1,1.3-2.6,1.8c-13.3,14.5-41.5,12.8-54.3,3.6
	c-10.5-7.6-14.7-18.5-15.3-30.6C721.8,34.7,722.3,20.8,722.3,6.3z"/>
<path class="st0" d="M100.7,111.4c-5.9,0-11.4,0-17.3,0c-0.3-1.8-0.5-3.5-0.9-5.7c-7.8,4.8-15.9,7.1-24.8,7.7
	C23,115.6-1.9,90.8,0.1,56.2c2-33.7,30.7-54.4,64.2-51.6c14.1,1.2,26.8,5.7,36.8,16c0.5,0.5,1,1.1,1.7,1.9
	c-5.1,4.7-10.1,9.2-15.3,14c-1.2-1-2.2-1.9-3.2-2.7c-20.7-18-53.6-8.3-58.7,17.5c-2.5,12.9-0.8,25.2,9.9,34.5
	c10.6,9.3,29.4,10.2,40.9,1.9c1.3-0.9,2.3-3.1,2.4-4.8c0.3-7.1,0.2-14.2,0.1-21.3c-0.1-3.1,1-4.3,4.2-4.2c5.8,0.2,11.6,0.1,17.7,0.1
	C100.7,75.5,100.7,93.1,100.7,111.4z"/>
<path class="st0" d="M305,111.6c-6.7,0-13.1,0.1-19.4-0.1c-0.9,0-2.1-1.5-2.4-2.5c-0.5-1.7-0.3-3.5-0.4-6.2
	c-10.4,9.8-22.2,11.6-34.8,9.1c-9.3-1.8-17-6.3-22.9-13.8c-12.7-16.2-11.2-42.8,3-57.4c11.7-12,37.6-16.8,53.5-2.1
	c0.2-2.7,0.4-5,0.6-7.6c7.6,0,15.1,0,22.9,0C305,57.6,305,84.2,305,111.6z M282.5,71.3c0.1-13.2-8.6-22.7-20.8-22.8
	c-12.7-0.1-21.4,9-21.5,22.5c-0.1,13.6,8.3,22.9,20.9,23C273.6,94.2,282.4,84.8,282.5,71.3z"/>
<path class="st0" d="M880.6,29.3c22.9,0.3,39.9,13.3,44.1,34.1c4.6,23-10.7,45-34,48.7c-15.6,2.5-30.2,0.3-42.2-10.8
	c-12.5-11.7-15.5-26.4-10.9-42.4c4.6-15.9,16.3-24.6,32.2-28.1C873.3,29.8,877,29.7,880.6,29.3z M901.6,71.2
	c0-12.5-7.8-21.8-18.9-22.6c-12.4-0.9-21.5,6.6-23.2,19.3c-1.6,12.1,5,23,15.6,25.4C889.9,96.7,901.6,87,901.6,71.2z"/>
<path class="st0" d="M161.4,29.6c21.2-0.1,38.3,11.6,43.2,29.6c8.1,29.8-13.7,57-48.8,53.4c-20-2.1-34-13.9-38-30.8
	C111.1,53.4,130.9,29.7,161.4,29.6z M140.4,71.3c0,13.5,8.7,22.8,21.3,22.7c12.5-0.1,21.1-9.6,21-23.1c-0.1-13.1-8.9-22.4-21.2-22.4
	C148.8,48.5,140.4,57.7,140.4,71.3z"/>
<path class="st0" d="M552.3,29.6c23.2,0,41.3,14.5,44.3,34.6c4.2,28.9-17.9,51.7-49.7,48.4c-19.9-2.1-33.8-13.4-38.1-30.1
	C501.4,54,521.4,29.6,552.3,29.6z M531.2,70.7c-0.1,7.1,1.7,13.5,7.3,18.3c6.2,5.4,16.2,6.6,23.6,2.7c8.7-4.6,11.7-12.4,11.3-21.6
	c-0.4-10.6-6-18.3-14.6-20.8C544.1,45.1,531.5,54.9,531.2,70.7z"/>
<path class="st0" d="M1000.4,30.9c8.1,0,15.5,0,23.2,0c0.1,1.6,0.3,2.9,0.3,4.2c0,23.9-0.1,47.8,0.1,71.7c0,3.8-1.2,5.1-4.9,4.9
	c-4.1-0.3-8.2-0.3-12.3,0c-3.9,0.3-5.8-1-5.2-5.1c0.1-1-0.1-2.1-0.3-4c-1.8,1.4-3.1,2.5-4.5,3.6c-14.9,11.4-40,8-49.7-7.1
	c-2.6-4.1-3.8-9.1-5.1-13.9c-0.8-3-0.8-6.3-0.9-9.5c-0.1-14.8,0-29.6,0-44.8c7.8,0,15.3,0,23.3,0c0.1,1.6,0.2,3.3,0.2,4.9
	c0,12.1,0,24.2,0,36.3c0,2.3,0.1,4.6,0.5,6.8c1.7,9.1,6,13.1,14.9,13.9c8.6,0.8,16.1-3.6,18.7-11.5c1.1-3.4,1.7-7.1,1.7-10.6
	C1000.6,57.6,1000.4,44.4,1000.4,30.9z"/>
<path class="st0" d="M504.8,11.6c-2.6,6.5-4.9,12.5-7.4,18.9c-9.7-5.1-19.7-6.8-30.2-4.8c-13,2.5-20.2,12.8-17.7,25.7
	c0.2,1.1,2.7,2.4,4.2,2.4c11.1,0.2,22.3,0.1,33.4,0.1c1.8,0,3.6,0,5.7,0c0,6.6,0,12.5,0,19c-1.7,0.1-3.3,0.2-4.9,0.2
	c-10.8,0-21.7,0-32.5,0c-6.1,0-6.1,0-6.1,6.3c0,9.4-0.1,18.8,0.1,28.2c0.1,3.2-1.1,4.3-4.2,4.2c-5.5-0.2-11-0.1-16.5,0
	c-2.5,0-3.5-0.9-3.5-3.5c0.1-22.4-0.3-44.8,0.4-67.2c0.5-17.2,12.8-30.4,31-34.7c13.3-3.2,26.6-2.6,39.7,1.6
	C499.2,8.8,501.8,10.2,504.8,11.6z"/>
<path class="st0" d="M328.2,0c7.5,0,14.8,0,22.9,0c0,1.7,0,3.5,0,5.2c0,25.1,0,50.2,0,75.3c0,11.9,3.3,14.8,15.2,13.4
	c0.4-0.1,0.9,0,1.8,0.1c0.3,5.1,0.8,10.2,0.8,15.3c0,0.8-1.5,2.2-2.5,2.4c-8.7,2.1-17.3,1.8-25.4-2.2c-9.4-4.7-13.1-13-13.2-22.8
	c-0.2-27.8-0.1-55.7-0.1-83.5C327.7,2.2,328,1.2,328.2,0z"/>
<path class="st0" d="M663.6,50.5c-1.8,0-3.3,0-4.8,0c-13.8,0.1-21.9,8-22,21.8c-0.1,11.2,0,22.4,0,33.6c0,1.6,0,3.3,0,5.7
	c-7.4,0-14.5,0.1-21.5-0.2c-0.7,0-1.8-2.7-1.9-4.2c-0.1-22.2-0.1-44.5-0.1-66.7c0-3,0-6,0-9.4c7.5,0,14.7,0,22.2,0
	c0.1,3,0.3,5.9,0.4,8.7c4.4-2.7,8.3-5.8,12.8-7.6c4.5-1.8,9.6-2.1,14.9-3.2C663.6,36.7,663.6,43.4,663.6,50.5z"/>
</svg>
